<svg xmlns="http://www.w3.org/2000/svg" xmlns:svg="http://www.w3.org/2000/svg" id="svg3033" width="450" height="216" version="1.1"><defs id="defs3035"><linearGradient id="linearGradient3938" x1="0" x2="1" y1="0" y2=".235" gradientTransform="matrix(340,0,0,340,-843.17464,-1494.1042)" gradientUnits="userSpaceOnUse" spreadMethod="pad"><stop id="stop3940" offset="0" style="stop-opacity:1;stop-color:#fff"/><stop id="stop3942" offset="1" style="stop-opacity:1;stop-color:#fff"/></linearGradient><linearGradient id="linearGradient3812" x1="0" x2="1" y1="0" y2=".235" gradientTransform="matrix(340,0,0,340,1283.1747,1794.1042)" gradientUnits="userSpaceOnUse" spreadMethod="pad"><stop id="stop3814" offset="0" style="stop-opacity:1;stop-color:#fff"/><stop id="stop3816" offset="1" style="stop-opacity:1;stop-color:#fff"/></linearGradient><linearGradient id="linearGradient3574" x1="0" x2="1" y1="0" y2=".5" gradientTransform="matrix(120,0,0,120,1343.1747,1734.1042)" gradientUnits="userSpaceOnUse" spreadMethod="pad"><stop id="stop3576" offset="0" style="stop-opacity:1;stop-color:#fff"/><stop id="stop3578" offset="1" style="stop-opacity:1;stop-color:#fff"/></linearGradient><linearGradient id="linearGradient3428" x1="0" x2="1" y1="0" y2=".5" gradientTransform="matrix(120,0,0,120,1483.1747,1974.1042)" gradientUnits="userSpaceOnUse" spreadMethod="pad"><stop id="stop3430" offset="0" style="stop-opacity:1;stop-color:#cdcdcd"/><stop id="stop3432" offset="1" style="stop-opacity:1;stop-color:#b3b3b3"/></linearGradient><linearGradient id="linearGradient3404" x1="0" x2="1" y1="0" y2=".5" gradientTransform="matrix(120,0,0,120,1483.1747,1974.1042)" gradientUnits="userSpaceOnUse" spreadMethod="pad"><stop id="stop3406" offset="0" style="stop-opacity:1;stop-color:#fff"/><stop id="stop3408" offset="1" style="stop-opacity:1;stop-color:#fff"/></linearGradient><linearGradient id="linearGradient3214" x1="0" x2=".667" y1="0" y2="1" gradientTransform="matrix(180,0,0,180,1683.1747,1794.1042)" gradientUnits="userSpaceOnUse" spreadMethod="pad"><stop id="stop3216" offset="0" style="stop-opacity:1;stop-color:#cdcdcd"/><stop id="stop3218" offset="1" style="stop-opacity:1;stop-color:#b3b3b3"/></linearGradient><linearGradient id="linearGradient3190" x1="0" x2=".667" y1="0" y2="1" gradientTransform="matrix(180,0,0,180,1683.1747,1794.1042)" gradientUnits="userSpaceOnUse" spreadMethod="pad"><stop id="stop3192" offset="0" style="stop-opacity:1;stop-color:#fff"/><stop id="stop3194" offset="1" style="stop-opacity:1;stop-color:#fff"/></linearGradient><linearGradient id="linearGradient3090" x1="0" x2=".5" y1="0" y2="1" gradientTransform="matrix(200,0,0,200,1163.1747,1794.1042)" gradientUnits="userSpaceOnUse" spreadMethod="pad"><stop id="stop3092" offset="0" style="stop-opacity:1;stop-color:#fff"/><stop id="stop3094" offset="1" style="stop-opacity:1;stop-color:#fff"/></linearGradient></defs><metadata id="metadata3038"/><g id="layer1" transform="translate(0,-836.36218)"><g id="g3068" transform="matrix(0.5625,0,0,0.5625,0,836.36218)"><g id="g3070"><path id="path3072" style="fill:#fff;fill-opacity:1;fill-rule:nonzero;stroke:none" d="M 0,0 800,0 800,384 0,384 0,0 z"/></g><g id="g3074"><g id="g3076"><g id="g3078"><g id="g3080"><g id="g3082"><g id="g3088"><path id="path3096" style="fill:url(#linearGradient3090);stroke:none" d="m 152,122 c 0,12 -10,22 -22,22 -13,0 -23,-10 -23,-22 0,-12 10,-22 23,-22 12,0 22,10 22,22 z"/></g></g></g><g id="g3098"><g id="g3100"><path id="path3102" style="fill:none;stroke:#000;stroke-width:2;stroke-linecap:butt;stroke-linejoin:miter;stroke-miterlimit:10;stroke-opacity:1;stroke-dasharray:none" d="m 152,122 c 0,12 -10,22 -22,22 -13,0 -23,-10 -23,-22 0,-12 10,-22 23,-22 12,0 22,10 22,22 z"/></g></g><g id="g3104"><g id="g3106"><path id="path3108" style="fill:none;stroke:#000;stroke-width:2;stroke-linecap:butt;stroke-linejoin:miter;stroke-miterlimit:10;stroke-opacity:1;stroke-dasharray:none" d="m 130,144 0,57 c 0,3 1,7 2,9 l 48,68 m -50,-72 -50,72 m 0,-112 100,0"/></g></g><g id="g3110"><g id="g3112"><g id="g3114" transform="matrix(0.05,0,0,0.05,98,283.4)"><g id="g3116"><g id="g3118" transform="translate(0,172)"><g id="g3120"><g id="g3122"><path id="path3124" style="fill:#000;fill-opacity:1;fill-rule:nonzero;stroke:none" d="m 212,-179 c -10,-28 -35,-45 -73,-45 -59,0 -87,40 -87,99 0,60 29,101 89,101 43,0 62,-24 78,-52 l 27,14 C 228,-24 195,4 139,4 59,4 22,-46 18,-125 c -6,-104 99,-153 187,-111 19,9 31,26 39,46"/></g></g></g></g><g id="g3126" transform="translate(259,0)"><g id="g3128" transform="translate(0,172)"><g id="g3130"><g id="g3132"><path id="path3134" style="fill:#000;fill-opacity:1;fill-rule:nonzero;stroke:none" d="m 30,0 0,-248 33,0 0,221 125,0 0,27 -158,0"/></g></g></g></g><g id="g3136" transform="translate(459,0)"><g id="g3138" transform="translate(0,172)"><g id="g3140"><g id="g3142"><path id="path3144" style="fill:#000;fill-opacity:1;fill-rule:nonzero;stroke:none" d="m 33,0 0,-248 34,0 0,248 -34,0"/></g></g></g></g><g id="g3146" transform="translate(559,0)"><g id="g3148" transform="translate(0,172)"><g id="g3150"><g id="g3152"><path id="path3154" style="fill:#000;fill-opacity:1;fill-rule:nonzero;stroke:none" d="m 30,0 0,-248 187,0 0,28 -154,0 0,79 144,0 0,27 -144,0 0,87 162,0 0,27 -195,0"/></g></g></g></g><g id="g3156" transform="translate(799,0)"><g id="g3158" transform="translate(0,172)"><g id="g3160"><g id="g3162"><path id="path3164" style="fill:#000;fill-opacity:1;fill-rule:nonzero;stroke:none" d="M 190,0 58,-211 59,0 30,0 l 0,-248 39,0 133,213 -2,-213 31,0 0,248 -41,0"/></g></g></g></g><g id="g3166" transform="translate(1058,0)"><g id="g3168" transform="translate(0,172)"><g id="g3170"><g id="g3172"><path id="path3174" style="fill:#000;fill-opacity:1;fill-rule:nonzero;stroke:none" d="m 127,-220 0,220 -34,0 0,-220 -85,0 0,-28 204,0 0,28 -85,0"/></g></g></g></g></g></g></g></g></g><g id="g3176"><g id="g3178"><g id="g3180"><g id="g3182"><g id="g3188"><path id="path3196" style="fill:url(#linearGradient3190);stroke:none" d="m 600,105 c 0,-3 2,-5 5,-5 l 86,0 c 2,0 6,1 8,3 l 17,17 c 2,2 4,6 4,9 l 0,146 c 0,2 -3,5 -5,5 l -110,0 c -3,0 -5,-3 -5,-5 l 0,-170 z"/></g></g></g><g id="g3198"><g id="g3200"><path id="path3202" style="fill:none;stroke:#000;stroke-width:2;stroke-linecap:butt;stroke-linejoin:miter;stroke-miterlimit:10;stroke-opacity:1;stroke-dasharray:none" d="m 600,105 c 0,-3 2,-5 5,-5 l 86,0 c 2,0 6,1 8,3 l 17,17 c 2,2 4,6 4,9 l 0,146 c 0,2 -3,5 -5,5 l -110,0 c -3,0 -5,-3 -5,-5 l 0,-170 z"/></g></g><g id="g3204"><g id="g3206"><g id="g3212"><path id="path3220" style="fill:url(#linearGradient3214);stroke:none" d="m 697,104 c -1,-2 0,-3 2,-1 l 17,17 c 2,2 1,3 -1,2 l -10,-2 c -2,-1 -5,-3 -6,-6 l -2,-10 z"/></g></g></g><g id="g3222"><g id="g3224"><path id="path3226" style="fill:none;stroke:#000;stroke-width:2;stroke-linecap:butt;stroke-linejoin:miter;stroke-miterlimit:10;stroke-opacity:1;stroke-dasharray:none" d="m 697,104 c -1,-2 0,-3 2,-1 l 17,17 c 2,2 1,3 -1,2 l -10,-2 c -2,-1 -5,-3 -6,-6 l -2,-10 z"/></g></g><g id="g3228"><g id="g3230"><g id="g3232" transform="matrix(0.037,0,0,0.037,618,191.636)"><g id="g3234"><g id="g3236" transform="translate(0,172)"><g id="g3238"><g id="g3240"><path id="path3242" style="fill:#000;fill-opacity:1;fill-rule:nonzero;stroke:none" d="m 197,0 0,-115 -134,0 0,115 -33,0 0,-248 33,0 0,105 134,0 0,-105 34,0 0,248 -34,0"/></g></g></g></g><g id="g3244" transform="translate(259,0)"><g id="g3246" transform="translate(0,172)"><g id="g3248"><g id="g3250"><path id="path3252" style="fill:#000;fill-opacity:1;fill-rule:nonzero;stroke:none" d="m 100,-194 c 63,0 86,42 84,106 l -135,0 c 0,40 14,67 53,68 26,1 43,-12 49,-29 l 28,8 C 168,-13 142,4 102,4 44,4 14,-33 15,-96 c 1,-61 26,-98 85,-98 z m 52,81 c 6,-60 -76,-77 -97,-28 -3,7 -6,17 -6,28 l 103,0"/></g></g></g></g><g id="g3254" transform="translate(459,0)"><g id="g3256" transform="translate(0,172)"><g id="g3258"><g id="g3260"><path id="path3262" style="fill:#000;fill-opacity:1;fill-rule:nonzero;stroke:none" d="m 24,0 0,-261 32,0 0,261 -32,0"/></g></g></g></g><g id="g3264" transform="translate(538,0)"><g id="g3266" transform="translate(0,172)"><g id="g3268"><g id="g3270"><path id="path3272" style="fill:#000;fill-opacity:1;fill-rule:nonzero;stroke:none" d="m 24,0 0,-261 32,0 0,261 -32,0"/></g></g></g></g><g id="g3274" transform="translate(617,0)"><g id="g3276" transform="translate(0,172)"><g id="g3278"><g id="g3280"><path id="path3282" style="fill:#000;fill-opacity:1;fill-rule:nonzero;stroke:none" d="m 100,-194 c 62,-1 85,37 85,99 1,63 -27,99 -86,99 -59,0 -83,-39 -84,-99 0,-66 28,-99 85,-99 z m -1,174 c 44,1 53,-31 53,-75 0,-43 -8,-75 -51,-75 -43,0 -53,32 -53,75 0,43 10,74 51,75"/></g></g></g></g></g></g><g id="g3292"><g id="g3294" transform="matrix(0.037,0,0,0.037,652,191.636)"><g id="g3296"><g id="g3298" transform="translate(0,172)"><g id="g3300"><g id="g3302"><path id="path3304" style="fill:#000;fill-opacity:1;fill-rule:nonzero;stroke:none" d="m 39,-94 c 74,12 -11,154 75,146 l 0,23 C 70,79 44,65 44,23 44,-23 55,-84 6,-82 l 0,-22 c 81,4 -7,-162 84,-157 l 24,0 0,23 c -82,-15 -2,131 -75,144"/></g></g></g></g><g id="g3306" transform="translate(120,0)"><g id="g3308" transform="translate(0,172)"><g id="g3310"><g id="g3312"><path id="path3314" style="fill:#000;fill-opacity:1;fill-rule:nonzero;stroke:none" d="m 39,-94 c 74,12 -11,154 75,146 l 0,23 C 70,79 44,65 44,23 44,-23 55,-84 6,-82 l 0,-22 c 81,4 -7,-162 84,-157 l 24,0 0,23 c -82,-15 -2,131 -75,144"/></g></g></g></g></g></g><g id="g3324"><g id="g3326" transform="matrix(0.037,0,0,0.037,664,191.636)"><g id="g3328"><g id="g3330" transform="translate(0,172)"><g id="g3332"><g id="g3334"><path id="path3336" style="fill:#000;fill-opacity:1;fill-rule:nonzero;stroke:none" d="M 206,0 170,0 130,-164 89,0 53,0 -1,-190 l 32,0 39,164 43,-164 34,0 41,164 42,-164 31,0"/></g></g></g></g><g id="g3338" transform="translate(259,0)"><g id="g3340" transform="translate(0,172)"><g id="g3342"><g id="g3344"><path id="path3346" style="fill:#000;fill-opacity:1;fill-rule:nonzero;stroke:none" d="M 106,-169 C 34,-169 62,-67 57,0 l -32,0 0,-261 32,0 -1,103 c 12,-21 28,-36 61,-36 89,0 53,116 60,194 l -32,0 0,-121 c 2,-32 -8,-49 -39,-48"/></g></g></g></g><g id="g3348" transform="translate(459,0)"><g id="g3350" transform="translate(0,172)"><g id="g3352"><g id="g3354"><path id="path3356" style="fill:#000;fill-opacity:1;fill-rule:nonzero;stroke:none" d="m 100,-194 c 62,-1 85,37 85,99 1,63 -27,99 -86,99 -59,0 -83,-39 -84,-99 0,-66 28,-99 85,-99 z m -1,174 c 44,1 53,-31 53,-75 0,-43 -8,-75 -51,-75 -43,0 -53,32 -53,75 0,43 10,74 51,75"/></g></g></g></g></g></g><g id="g3366"><g id="g3368" transform="matrix(0.037,0,0,0.037,692,191.636)"><g id="g3370"><g id="g3372" transform="translate(0,172)"><g id="g3374"><g id="g3376"><path id="path3378" style="fill:#000;fill-opacity:1;fill-rule:nonzero;stroke:none" d="M 76,-40 C 78,24 84,88 6,75 L 6,52 C 86,64 9,-79 80,-94 40,-100 46,-153 46,-200 47,-229 35,-241 6,-238 l 0,-23 c 44,-4 70,10 70,52 0,47 -12,108 38,105 l 0,22 c -26,1 -39,14 -38,42"/></g></g></g></g><g id="g3380" transform="translate(120,0)"><g id="g3382" transform="translate(0,172)"><g id="g3384"><g id="g3386"><path id="path3388" style="fill:#000;fill-opacity:1;fill-rule:nonzero;stroke:none" d="M 76,-40 C 78,24 84,88 6,75 L 6,52 C 86,64 9,-79 80,-94 40,-100 46,-153 46,-200 47,-229 35,-241 6,-238 l 0,-23 c 44,-4 70,10 70,52 0,47 -12,108 38,105 l 0,22 c -26,1 -39,14 -38,42"/></g></g></g></g></g></g></g></g></g><g id="g3390"><g id="g3392"><g id="g3394"><g id="g3396"><g id="g3402"><path id="path3410" style="fill:url(#linearGradient3404);stroke:none" d="m 400,285 c 0,-3 2,-5 5,-5 l 98,0 c 2,0 6,1 8,3 l 5,5 c 2,2 4,6 4,9 l 0,38 c 0,2 -3,5 -5,5 l -110,0 c -3,0 -5,-3 -5,-5 l 0,-50 z"/></g></g></g><g id="g3412"><g id="g3414"><path id="path3416" style="fill:none;stroke:#000;stroke-width:2;stroke-linecap:butt;stroke-linejoin:miter;stroke-miterlimit:10;stroke-opacity:1;stroke-dasharray:none" d="m 400,285 c 0,-3 2,-5 5,-5 l 98,0 c 2,0 6,1 8,3 l 5,5 c 2,2 4,6 4,9 l 0,38 c 0,2 -3,5 -5,5 l -110,0 c -3,0 -5,-3 -5,-5 l 0,-50 z"/></g></g><g id="g3418"><g id="g3420"><g id="g3426"><path id="path3434" style="fill:url(#linearGradient3428);stroke:none" d="m 509,284 c -1,-2 0,-3 2,-1 l 5,5 c 2,2 1,3 -1,2 l -5,-1 -1,-5 z"/></g></g></g><g id="g3436"><g id="g3438"><path id="path3440" style="fill:none;stroke:#000;stroke-width:2;stroke-linecap:butt;stroke-linejoin:miter;stroke-miterlimit:10;stroke-opacity:1;stroke-dasharray:none" d="m 509,284 c -1,-2 0,-3 2,-1 l 5,5 c 2,2 1,3 -1,2 l -5,-1 -1,-5 z"/></g></g><g id="g3442"><g id="g3444"><g id="g3446" transform="matrix(0.037,0,0,0.037,427,308.636)"><g id="g3448"><g id="g3450" transform="translate(0,172)"><g id="g3452"><g id="g3454"><path id="path3456" style="fill:#000;fill-opacity:1;fill-rule:nonzero;stroke:none" d="m 197,0 0,-115 -134,0 0,115 -33,0 0,-248 33,0 0,105 134,0 0,-105 34,0 0,248 -34,0"/></g></g></g></g><g id="g3458" transform="translate(259,0)"><g id="g3460" transform="translate(0,172)"><g id="g3462"><g id="g3464"><path id="path3466" style="fill:#000;fill-opacity:1;fill-rule:nonzero;stroke:none" d="m 100,-194 c 63,0 86,42 84,106 l -135,0 c 0,40 14,67 53,68 26,1 43,-12 49,-29 l 28,8 C 168,-13 142,4 102,4 44,4 14,-33 15,-96 c 1,-61 26,-98 85,-98 z m 52,81 c 6,-60 -76,-77 -97,-28 -3,7 -6,17 -6,28 l 103,0"/></g></g></g></g><g id="g3468" transform="translate(459,0)"><g id="g3470" transform="translate(0,172)"><g id="g3472"><g id="g3474"><path id="path3476" style="fill:#000;fill-opacity:1;fill-rule:nonzero;stroke:none" d="m 24,0 0,-261 32,0 0,261 -32,0"/></g></g></g></g><g id="g3478" transform="translate(538,0)"><g id="g3480" transform="translate(0,172)"><g id="g3482"><g id="g3484"><path id="path3486" style="fill:#000;fill-opacity:1;fill-rule:nonzero;stroke:none" d="m 24,0 0,-261 32,0 0,261 -32,0"/></g></g></g></g><g id="g3488" transform="translate(617,0)"><g id="g3490" transform="translate(0,172)"><g id="g3492"><g id="g3494"><path id="path3496" style="fill:#000;fill-opacity:1;fill-rule:nonzero;stroke:none" d="m 100,-194 c 62,-1 85,37 85,99 1,63 -27,99 -86,99 -59,0 -83,-39 -84,-99 0,-66 28,-99 85,-99 z m -1,174 c 44,1 53,-31 53,-75 0,-43 -8,-75 -51,-75 -43,0 -53,32 -53,75 0,43 10,74 51,75"/></g></g></g></g></g></g><g id="g3506"><g id="g3508" transform="matrix(0.037,0,0,0.037,461,308.636)"><g id="g3510"><g id="g3512" transform="translate(0,172)"><g id="g3514"><g id="g3516"><path id="path3518" style="fill:#000;fill-opacity:1;fill-rule:nonzero;stroke:none" d="M 206,0 170,0 130,-164 89,0 53,0 -1,-190 l 32,0 39,164 43,-164 34,0 41,164 42,-164 31,0"/></g></g></g></g><g id="g3520" transform="translate(259,0)"><g id="g3522" transform="translate(0,172)"><g id="g3524"><g id="g3526"><path id="path3528" style="fill:#000;fill-opacity:1;fill-rule:nonzero;stroke:none" d="m 100,-194 c 62,-1 85,37 85,99 1,63 -27,99 -86,99 -59,0 -83,-39 -84,-99 0,-66 28,-99 85,-99 z m -1,174 c 44,1 53,-31 53,-75 0,-43 -8,-75 -51,-75 -43,0 -53,32 -53,75 0,43 10,74 51,75"/></g></g></g></g><g id="g3530" transform="translate(459,0)"><g id="g3532" transform="translate(0,172)"><g id="g3534"><g id="g3536"><path id="path3538" style="fill:#000;fill-opacity:1;fill-rule:nonzero;stroke:none" d="M 114,-163 C 36,-179 61,-72 57,0 l -32,0 -1,-190 30,0 c 1,12 -1,29 2,39 6,-27 23,-49 58,-41 l 0,29"/></g></g></g></g><g id="g3540" transform="translate(578,0)"><g id="g3542" transform="translate(0,172)"><g id="g3544"><g id="g3546"><path id="path3548" style="fill:#000;fill-opacity:1;fill-rule:nonzero;stroke:none" d="m 24,0 0,-261 32,0 0,261 -32,0"/></g></g></g></g><g id="g3550" transform="translate(657,0)"><g id="g3552" transform="translate(0,172)"><g id="g3554"><g id="g3556"><path id="path3558" style="fill:#000;fill-opacity:1;fill-rule:nonzero;stroke:none" d="m 85,-194 c 31,0 48,13 60,33 l -1,-100 32,0 1,261 -30,0 c -2,-10 0,-23 -3,-31 C 134,-8 116,4 85,4 32,4 16,-35 15,-94 c 0,-66 23,-100 70,-100 z m 9,24 c -40,0 -46,34 -46,75 0,40 6,74 45,74 42,0 51,-32 51,-76 0,-42 -9,-74 -50,-73"/></g></g></g></g></g></g></g></g></g><g id="g3560"><g id="g3562"><g id="g3564"><g id="g3566"><g id="g3572"><path id="path3580" style="fill:url(#linearGradient3574);stroke:none" d="m 260,45 c 0,-2.8 2,-5 5,-5 l 110,0 c 2,0 5,2.2 5,5 l 0,50 c 0,2.8 -3,5 -5,5 l -110,0 c -3,0 -5,-2.2 -5,-5 l 0,-50 z"/></g></g></g><g id="g3582"><g id="g3584"><path id="path3586" style="fill:none;stroke:#000;stroke-width:2;stroke-linecap:butt;stroke-linejoin:miter;stroke-miterlimit:10;stroke-opacity:1;stroke-dasharray:none" d="m 260,45 c 0,-2.8 2,-5 5,-5 l 110,0 c 2,0 5,2.2 5,5 l 0,50 c 0,2.8 -3,5 -5,5 l -110,0 c -3,0 -5,-2.2 -5,-5 l 0,-50 z"/></g></g><g id="g3588"><g id="g3590"><g id="g3592" transform="matrix(0.037,0,0,0.037,284,66.236)"><g id="g3594"><g id="g3596" transform="translate(0,172)"><g id="g3598"><g id="g3600"><path id="path3602" style="fill:#000;fill-opacity:1;fill-rule:nonzero;stroke:none" d="M 206,0 170,0 130,-164 89,0 53,0 -1,-190 l 32,0 39,164 43,-164 34,0 41,164 42,-164 31,0"/></g></g></g></g><g id="g3604" transform="translate(259,0)"><g id="g3606" transform="translate(0,172)"><g id="g3608"><g id="g3610"><path id="path3612" style="fill:#000;fill-opacity:1;fill-rule:nonzero;stroke:none" d="M 106,-169 C 34,-169 62,-67 57,0 l -32,0 0,-261 32,0 -1,103 c 12,-21 28,-36 61,-36 89,0 53,116 60,194 l -32,0 0,-121 c 2,-32 -8,-49 -39,-48"/></g></g></g></g><g id="g3614" transform="translate(459,0)"><g id="g3616" transform="translate(0,172)"><g id="g3618"><g id="g3620"><path id="path3622" style="fill:#000;fill-opacity:1;fill-rule:nonzero;stroke:none" d="m 100,-194 c 62,-1 85,37 85,99 1,63 -27,99 -86,99 -59,0 -83,-39 -84,-99 0,-66 28,-99 85,-99 z m -1,174 c 44,1 53,-31 53,-75 0,-43 -8,-75 -51,-75 -43,0 -53,32 -53,75 0,43 10,74 51,75"/></g></g></g></g></g></g><g id="g3632"><g id="g3634" transform="matrix(0.037,0,0,0.037,312,66.236)"><g id="g3636"><g id="g3638" transform="translate(0,172)"><g id="g3640"><g id="g3642"><path id="path3644" style="fill:#000;fill-opacity:1;fill-rule:nonzero;stroke:none" d="m 18,-150 0,-26 174,0 0,26 -174,0 z m 0,90 0,-26 174,0 0,26 -174,0"/></g></g></g></g></g></g><g id="g3654"><g id="g3656" transform="matrix(0.037,0,0,0.037,323,66.236)"><g id="g3658"><g id="g3660" transform="translate(0,172)"><g id="g3662"><g id="g3664"><path id="path3666" style="fill:#000;fill-opacity:1;fill-rule:nonzero;stroke:none" d="M 206,0 170,0 130,-164 89,0 53,0 -1,-190 l 32,0 39,164 43,-164 34,0 41,164 42,-164 31,0"/></g></g></g></g><g id="g3668" transform="translate(259,0)"><g id="g3670" transform="translate(0,172)"><g id="g3672"><g id="g3674"><path id="path3676" style="fill:#000;fill-opacity:1;fill-rule:nonzero;stroke:none" d="m 100,-194 c 62,-1 85,37 85,99 1,63 -27,99 -86,99 -59,0 -83,-39 -84,-99 0,-66 28,-99 85,-99 z m -1,174 c 44,1 53,-31 53,-75 0,-43 -8,-75 -51,-75 -43,0 -53,32 -53,75 0,43 10,74 51,75"/></g></g></g></g><g id="g3678" transform="translate(459,0)"><g id="g3680" transform="translate(0,172)"><g id="g3682"><g id="g3684"><path id="path3686" style="fill:#000;fill-opacity:1;fill-rule:nonzero;stroke:none" d="M 114,-163 C 36,-179 61,-72 57,0 l -32,0 -1,-190 30,0 c 1,12 -1,29 2,39 6,-27 23,-49 58,-41 l 0,29"/></g></g></g></g><g id="g3688" transform="translate(578,0)"><g id="g3690" transform="translate(0,172)"><g id="g3692"><g id="g3694"><path id="path3696" style="fill:#000;fill-opacity:1;fill-rule:nonzero;stroke:none" d="m 24,0 0,-261 32,0 0,261 -32,0"/></g></g></g></g><g id="g3698" transform="translate(657,0)"><g id="g3700" transform="translate(0,172)"><g id="g3702"><g id="g3704"><path id="path3706" style="fill:#000;fill-opacity:1;fill-rule:nonzero;stroke:none" d="m 85,-194 c 31,0 48,13 60,33 l -1,-100 32,0 1,261 -30,0 c -2,-10 0,-23 -3,-31 C 134,-8 116,4 85,4 32,4 16,-35 15,-94 c 0,-66 23,-100 70,-100 z m 9,24 c -40,0 -46,34 -46,75 0,40 6,74 45,74 42,0 51,-32 51,-76 0,-42 -9,-74 -50,-73"/></g></g></g></g></g></g></g></g></g><g id="g3708"><g id="g3710"><g id="g3712"><g id="g3714"><g id="g3716" transform="matrix(0.05,0,0,0.05,613,294.4)"><g id="g3718"><g id="g3720" transform="translate(0,172)"><g id="g3722"><g id="g3724"><path id="path3726" style="fill:#000;fill-opacity:1;fill-rule:nonzero;stroke:none" d="m 127,-220 0,220 -34,0 0,-220 -85,0 0,-28 204,0 0,28 -85,0"/></g></g></g></g><g id="g3728" transform="translate(219,0)"><g id="g3730" transform="translate(0,172)"><g id="g3732"><g id="g3734"><path id="path3736" style="fill:#000;fill-opacity:1;fill-rule:nonzero;stroke:none" d="m 30,0 0,-248 187,0 0,28 -154,0 0,79 144,0 0,27 -144,0 0,87 162,0 0,27 -195,0"/></g></g></g></g><g id="g3738" transform="translate(459,0)"><g id="g3740" transform="translate(0,172)"><g id="g3742"><g id="g3744"><path id="path3746" style="fill:#000;fill-opacity:1;fill-rule:nonzero;stroke:none" d="m 240,0 2,-218 C 219,-142 188,-73 162,0 L 139,0 58,-218 59,0 30,0 l 0,-248 44,0 77,211 c 21,-75 51,-140 76,-211 l 43,0 0,248 -30,0"/></g></g></g></g><g id="g3748" transform="translate(758,0)"><g id="g3750" transform="translate(0,172)"><g id="g3752"><g id="g3754"><path id="path3756" style="fill:#000;fill-opacity:1;fill-rule:nonzero;stroke:none" d="m 30,-248 c 87,1 191,-15 191,75 0,78 -77,80 -158,76 l 0,97 -33,0 0,-248 z m 33,125 c 57,0 124,11 124,-50 0,-59 -68,-47 -124,-48 l 0,98"/></g></g></g></g><g id="g3758" transform="translate(998,0)"><g id="g3760" transform="translate(0,172)"><g id="g3762"><g id="g3764"><path id="path3766" style="fill:#000;fill-opacity:1;fill-rule:nonzero;stroke:none" d="m 30,0 0,-248 33,0 0,221 125,0 0,27 -158,0"/></g></g></g></g><g id="g3768" transform="translate(1198,0)"><g id="g3770" transform="translate(0,172)"><g id="g3772"><g id="g3774"><path id="path3776" style="fill:#000;fill-opacity:1;fill-rule:nonzero;stroke:none" d="M 205,0 177,-72 64,-72 36,0 1,0 l 101,-248 38,0 99,248 -34,0 z m -38,-99 -47,-123 c -12,45 -31,82 -46,123 l 93,0"/></g></g></g></g><g id="g3778" transform="translate(1411,0)"><g id="g3780" transform="translate(0,172)"><g id="g3782"><g id="g3784"><path id="path3786" style="fill:#000;fill-opacity:1;fill-rule:nonzero;stroke:none" d="m 127,-220 0,220 -34,0 0,-220 -85,0 0,-28 204,0 0,28 -85,0"/></g></g></g></g><g id="g3788" transform="translate(1630,0)"><g id="g3790" transform="translate(0,172)"><g id="g3792"><g id="g3794"><path id="path3796" style="fill:#000;fill-opacity:1;fill-rule:nonzero;stroke:none" d="m 30,0 0,-248 187,0 0,28 -154,0 0,79 144,0 0,27 -144,0 0,87 162,0 0,27 -195,0"/></g></g></g></g></g></g></g></g></g><g id="g3798"><g id="g3800"><g id="g3802"><g id="g3804"><g id="g3810"><path id="path3818" style="fill:url(#linearGradient3812);stroke:none" d="m 200,125 c 0,-3 2,-5 5,-5 l 290,0 c 2,0 5,-3 5,-5 l 0,-10 c 0,-3 1,-4 3,-2 l 33,33 c 2,2 2,5 0,7 l -33,33 c -2,2 -3,1 -3,-1 l 0,-10 c 0,-3 -3,-5 -5,-5 l -290,0 c -3,0 -5,-3 -5,-5 l 0,-30 z"/></g></g></g><g id="g3820"><g id="g3822"><path id="path3824" style="fill:none;stroke:#000;stroke-width:2;stroke-linecap:butt;stroke-linejoin:miter;stroke-miterlimit:10;stroke-opacity:1;stroke-dasharray:none" d="m 200,125 c 0,-3 2,-5 5,-5 l 290,0 c 2,0 5,-3 5,-5 l 0,-10 c 0,-3 1,-4 3,-2 l 33,33 c 2,2 2,5 0,7 l -33,33 c -2,2 -3,1 -3,-1 l 0,-10 c 0,-3 -3,-5 -5,-5 l -290,0 c -3,0 -5,-3 -5,-5 l 0,-30 z"/></g></g><g id="g3826"><g id="g3828"><g id="g3830" transform="matrix(0.05,0,0,0.05,310,134.4)"><g id="g3832"><g id="g3834" transform="translate(0,172)"><g id="g3836"><g id="g3838"><path id="path3840" style="fill:#000;fill-opacity:1;fill-rule:nonzero;stroke:none" d="m 30,-248 c 87,1 191,-15 191,75 0,78 -77,80 -158,76 l 0,97 -33,0 0,-248 z m 33,125 c 57,0 124,11 124,-50 0,-59 -68,-47 -124,-48 l 0,98"/></g></g></g></g><g id="g3842" transform="translate(240,0)"><g id="g3844" transform="translate(0,172)"><g id="g3846"><g id="g3848"><path id="path3850" style="fill:#000;fill-opacity:1;fill-rule:nonzero;stroke:none" d="m 140,-251 c 81,0 123,46 123,126 C 263,-46 219,4 140,4 59,4 17,-45 17,-125 c 0,-80 42,-126 123,-126 z m 0,227 c 63,0 89,-41 89,-101 0,-60 -29,-99 -89,-99 -61,0 -89,39 -89,99 0,60 28,100 89,101"/></g></g></g></g><g id="g3852" transform="translate(520,0)"><g id="g3854" transform="translate(0,172)"><g id="g3856"><g id="g3858"><path id="path3860" style="fill:#000;fill-opacity:1;fill-rule:nonzero;stroke:none" d="m 185,-189 c -5,-48 -123,-54 -124,2 14,75 158,14 163,119 C 227,10 103,19 49,-13 32,-23 21,-39 16,-59 l 33,-7 c 5,56 141,63 141,-1 0,-78 -155,-14 -162,-118 -5,-82 145,-84 179,-34 5,7 8,16 11,25"/></g></g></g></g><g id="g3862" transform="translate(760,0)"><g id="g3864" transform="translate(0,172)"><g id="g3866"><g id="g3868"><path id="path3870" style="fill:#000;fill-opacity:1;fill-rule:nonzero;stroke:none" d="m 127,-220 0,220 -34,0 0,-220 -85,0 0,-28 204,0 0,28 -85,0"/></g></g></g></g></g></g><g id="g3880"><g id="g3882" transform="matrix(0.05,0,0,0.05,364,134.4)"><g id="g3884"><g id="g3886" transform="translate(0,172)"><g id="g3888"><g id="g3890"><path id="path3892" style="fill:#000;fill-opacity:1;fill-rule:nonzero;stroke:none" d="m 30,-248 c 118,-7 216,8 213,122 C 240,-48 200,0 122,0 l -92,0 0,-248 z m 33,221 c 89,8 146,-16 146,-99 0,-83 -60,-101 -146,-95 l 0,194"/></g></g></g></g><g id="g3894" transform="translate(259,0)"><g id="g3896" transform="translate(0,172)"><g id="g3898"><g id="g3900"><path id="path3902" style="fill:#000;fill-opacity:1;fill-rule:nonzero;stroke:none" d="M 205,0 177,-72 64,-72 36,0 1,0 l 101,-248 38,0 99,248 -34,0 z m -38,-99 -47,-123 c -12,45 -31,82 -46,123 l 93,0"/></g></g></g></g><g id="g3904" transform="translate(472,0)"><g id="g3906" transform="translate(0,172)"><g id="g3908"><g id="g3910"><path id="path3912" style="fill:#000;fill-opacity:1;fill-rule:nonzero;stroke:none" d="m 127,-220 0,220 -34,0 0,-220 -85,0 0,-28 204,0 0,28 -85,0"/></g></g></g></g><g id="g3914" transform="translate(664,0)"><g id="g3916" transform="translate(0,172)"><g id="g3918"><g id="g3920"><path id="path3922" style="fill:#000;fill-opacity:1;fill-rule:nonzero;stroke:none" d="M 205,0 177,-72 64,-72 36,0 1,0 l 101,-248 38,0 99,248 -34,0 z m -38,-99 -47,-123 c -12,45 -31,82 -46,123 l 93,0"/></g></g></g></g></g></g></g></g></g><g id="g3924" transform="matrix(-1,0,0,-1,820,480)"><g id="g3926"><g id="g3928"><g id="g3930"><g id="g3936"><path id="path3944" style="fill:url(#linearGradient3938);stroke:none" d="m 240,225 c 0,-3 2,-5 5,-5 l 290,0 c 2,0 5,-3 5,-5 l 0,-10 c 0,-3 1,-4 3,-2 l 33,33 c 2,2 2,5 0,7 l -33,33 c -2,2 -3,1 -3,-1 l 0,-10 c 0,-3 -3,-5 -5,-5 l -290,0 c -3,0 -5,-3 -5,-5 l 0,-30 z"/></g></g></g><g id="g3946"><g id="g3948"><path id="path3950" style="fill:none;stroke:#000;stroke-width:2;stroke-linecap:butt;stroke-linejoin:miter;stroke-miterlimit:10;stroke-opacity:1;stroke-dasharray:none" d="m 240,225 c 0,-3 2,-5 5,-5 l 290,0 c 2,0 5,-3 5,-5 l 0,-10 c 0,-3 1,-4 3,-2 l 33,33 c 2,2 2,5 0,7 l -33,33 c -2,2 -3,1 -3,-1 l 0,-10 c 0,-3 -3,-5 -5,-5 l -290,0 c -3,0 -5,-3 -5,-5 l 0,-30 z"/></g></g><g id="g3952" transform="matrix(-1,0,0,-1,800,480)"><g id="g3954"><g id="g3956" transform="matrix(0.05,0,0,0.05,381,234.4)"><g id="g3958"><g id="g3960" transform="translate(0,172)"><g id="g3962"><g id="g3964"><path id="path3966" style="fill:#000;fill-opacity:1;fill-rule:nonzero;stroke:none" d="m 63,-220 0,92 138,0 0,28 -138,0 0,100 -33,0 0,-248 175,0 0,28 -142,0"/></g></g></g></g><g id="g3968" transform="translate(219,0)"><g id="g3970" transform="translate(0,172)"><g id="g3972"><g id="g3974"><path id="path3976" style="fill:#000;fill-opacity:1;fill-rule:nonzero;stroke:none" d="m 33,0 0,-248 34,0 0,248 -34,0"/></g></g></g></g><g id="g3978" transform="translate(319,0)"><g id="g3980" transform="translate(0,172)"><g id="g3982"><g id="g3984"><path id="path3986" style="fill:#000;fill-opacity:1;fill-rule:nonzero;stroke:none" d="m 30,0 0,-248 33,0 0,221 125,0 0,27 -158,0"/></g></g></g></g><g id="g3988" transform="translate(519,0)"><g id="g3990" transform="translate(0,172)"><g id="g3992"><g id="g3994"><path id="path3996" style="fill:#000;fill-opacity:1;fill-rule:nonzero;stroke:none" d="m 30,0 0,-248 187,0 0,28 -154,0 0,79 144,0 0,27 -144,0 0,87 162,0 0,27 -195,0"/></g></g></g></g></g></g></g></g></g></g></g></g></svg>